<svg width="14" height="15" viewBox="0 0 14 15" fill="none" xmlns="http://www.w3.org/2000/svg">
<path d="M7.62054 14.1211C7.82887 14.056 7.98186 13.9258 8.07952 13.7305C8.17718 13.5352 8.19996 13.3268 8.14788 13.1055C8.12184 13.0143 8.00791 12.8581 7.80608 12.6367C7.60426 12.4154 6.94345 11.7448 5.82366 10.625L3.55803 8.35937L13.4018 8.33984L13.5971 8.22266C13.8445 8.07943 13.978 7.85482 13.9975 7.54883C14.017 7.24284 13.9226 7.01172 13.7143 6.85547C13.5711 6.73828 13.3074 6.67318 12.9233 6.66016C12.5392 6.64713 11.0385 6.64062 8.42132 6.64062H3.55803L5.7846 4.39453C6.4096 3.78255 6.94671 3.24544 7.39593 2.7832C7.84515 2.32096 8.07626 2.07031 8.08929 2.03125C8.25856 1.70573 8.21949 1.40299 7.9721 1.12305C7.7247 0.843098 7.4122 0.755208 7.0346 0.859374C6.98251 0.872395 6.63095 1.19141 5.97991 1.81641C5.32887 2.45443 4.62249 3.15104 3.86077 3.90625C3.09905 4.66146 2.39918 5.37109 1.76116 6.03516C1.12314 6.6862 0.784597 7.05078 0.745535 7.12891C0.693452 7.23307 0.664155 7.33724 0.657644 7.44141C0.651134 7.54557 0.6609 7.66276 0.686941 7.79297C0.712983 7.84505 1.0385 8.19661 1.6635 8.84766C2.2885 9.4987 2.97861 10.2051 3.73382 10.9668C4.48903 11.7285 5.19866 12.4284 5.86272 13.0664C6.51376 13.7044 6.87835 14.043 6.95647 14.082C7.06064 14.1341 7.17132 14.1634 7.2885 14.1699C7.40569 14.1764 7.51637 14.1602 7.62054 14.1211Z" fill="#F3BC00"/>
</svg>
