<svg width="352" height="363" viewBox="0 0 352 363" fill="none" xmlns="http://www.w3.org/2000/svg">
<path d="M-1 362V362C43.8028 351.611 84.3119 326.757 114.051 291.675V291.675C164.673 231.957 179.666 149.081 152.565 75.6356L141.656 46.0722C132.414 21.0256 115.91 -1.41321 92.1544 -13.5954C86.481 -16.5047 80.7315 -19.1595 74.3705 -21.8079C50.237 -31.8558 22.6984 -27.4841 0.973154 -12.9444V-12.9444C-18.5072 0.0929597 -32.2909 20.7987 -30.4307 44.1652C-28.6972 65.9403 -22.4305 93.3399 -4.07479 114.5C11.5956 132.564 28.4052 143.852 46.5159 153.336C95.2668 178.866 154.009 182.527 206.5 166V166V166C250.399 151.901 286.998 121.116 308.408 80.2808L350.5 0" stroke="#B9C5DC" stroke-width="2"/>
</svg>
