<svg width="44" height="44" viewBox="0 0 44 44" fill="none" xmlns="http://www.w3.org/2000/svg">
<path fill-rule="evenodd" clip-rule="evenodd" d="M12.4926 13.3573C12 14.3055 12 15.5513 12 18.0428V24.9553C12 27.4468 12 28.6926 12.4926 29.6408C12.9076 30.4398 13.5592 31.0914 14.3582 31.5065C15.3065 31.999 16.5522 31.999 19.0437 31.999H25.9562C28.4478 31.999 29.6935 31.999 30.6418 31.5065C31.4408 31.0914 32.0924 30.4398 32.5074 29.6408C33 28.6926 33 27.4468 33 24.9553V18.0428C33 15.5513 33 14.3055 32.5074 13.3573C32.0924 12.5582 31.4408 11.9067 30.6418 11.4916C29.6935 10.999 28.4478 10.999 25.9562 10.999H19.0437C16.5522 10.999 15.3065 10.999 14.3582 11.4916C13.5592 11.9067 12.9076 12.5582 12.4926 13.3573ZM16.7133 17.5209C17.7195 17.5209 18.5351 16.7052 18.5351 15.6991C18.5351 14.693 17.7195 13.8774 16.7133 13.8774C15.7072 13.8774 14.8916 14.693 14.8916 15.6991C14.8916 16.7052 15.7072 17.5209 16.7133 17.5209ZM20.2035 18.8672H23.2227V20.2503C23.2227 20.2503 24.042 18.6117 26.2712 18.6117C28.2598 18.6117 29.9071 19.5913 29.9071 22.5772V28.8737H26.7783V23.3402C26.7783 21.5788 25.8379 21.3851 25.1214 21.3851C23.6342 21.3851 23.3796 22.6678 23.3796 23.57V28.8737H20.2035V18.8672ZM18.3014 18.8672H15.1253V28.8737H18.3014V18.8672Z" fill="white"/>
</svg>
