<svg xmlns="http://www.w3.org/2000/svg" width="214.064" height="67.534" viewBox="0 0 214.064 67.534">
  <g id="Group_12447" data-name="Group 12447" transform="translate(-343.835 -322.115)">
    <path id="Path_1497" data-name="Path 1497" d="M514.617,370.523V348.555a16.031,16.031,0,0,1,5.345-1.057c3.818,0,4.405,2.878,4.405,7.343v15.683h7.871V354.6c0-8.987-2.115-14.155-10.338-14.155-3.348,0-7.343,2.349-7.343,2.349v-1.644h-7.812v29.369Zm-23.026-33.129h7.87v-7.988h-7.87Zm0,33.129h7.87V341.154h-7.87ZM486.48,347.85v-6.7h-7.225v-8.165h-7.87v8.165H467.92v6.7h3.466v12.217c0,8.458,2.055,11.161,9.163,11.161a38.358,38.358,0,0,0,5.991-.881l-.352-6.285s-2.819.118-4.464.118c-2.468,0-2.468-1.351-2.468-4.289V347.85Zm-31.658,9.75v6.285a25.119,25.119,0,0,1-5.757.939c-2.115,0-2.879-1.41-2.879-3.465,0-2.115,1.235-3.114,3.29-3.29Zm7.87-7.283c0-6.872-3.054-9.868-10.689-9.868a53.539,53.539,0,0,0-11.924,1.7l.234,5.463s7.166-.469,11.043-.469c2.349,0,3.466.647,3.466,3.172v1.82l-6.285.47c-6.462.47-10.28,2.349-10.28,8.987,0,6.226,2.937,9.633,9.1,9.633A22.605,22.605,0,0,0,456,369.172c2.467,1.644,4.465,2.056,8.4,2.056l.234-5.933c-1.586-.294-1.82-1-1.938-2.761ZM426.1,343.855c0,3.524-1.644,6.344-5.7,6.344h-7.519V337.512h7.4C424.159,337.512,426.1,340.037,426.1,343.855Zm-5.4,13.276,4.64,13.392H434.2l-5.7-15.272c3.642-2.291,5.873-5.991,5.873-11.513,0-9.1-4.992-13.156-14.1-13.156H404.776v39.942h8.106V357.131Z" transform="translate(25.66 3.07)" fill="#153d8a" fill-rule="evenodd"/>
    <path id="Path_1498" data-name="Path 1498" d="M362.481,322.115h26.482a18.7,18.7,0,0,1,18.646,18.644h0a18.7,18.7,0,0,1-18.646,18.644H362.481a18.7,18.7,0,0,1-18.646-18.644h0a18.7,18.7,0,0,1,18.646-18.644" transform="translate(0)" fill="#f2b600" fill-rule="evenodd"/>
    <path id="Path_1499" data-name="Path 1499" d="M356.984,331.062l38.764,38.764H373.04l-16.057,16.056Z" transform="translate(5.536 3.767)" fill="#153d8a" fill-rule="evenodd" style="mix-blend-mode: multiply;isolation: isolate"/>
  </g>
</svg>
