<svg width="40" height="40" viewBox="0 0 40 40" fill="none" xmlns="http://www.w3.org/2000/svg">
<path d="M16.3602 20C16.3602 17.9894 17.9906 16.3591 20.0024 16.3591C22.0141 16.3591 23.6454 17.9894 23.6454 20C23.6454 22.0105 22.0141 23.6408 20.0024 23.6408C17.9906 23.6408 16.3602 22.0105 16.3602 20ZM14.3909 20C14.3909 23.0973 16.9031 25.6081 20.0024 25.6081C23.1016 25.6081 25.6138 23.0973 25.6138 20C25.6138 16.9026 23.1016 14.3919 20.0024 14.3919C16.9031 14.3919 14.3909 16.9026 14.3909 20ZM24.5246 14.1695C24.5245 14.4287 24.6013 14.6821 24.7453 14.8977C24.8893 15.1133 25.0941 15.2813 25.3336 15.3806C25.5732 15.4799 25.8369 15.506 26.0913 15.4555C26.3457 15.4051 26.5794 15.2803 26.7629 15.0971C26.9464 14.9139 27.0713 14.6804 27.122 14.4262C27.1727 14.172 27.1469 13.9085 27.0477 13.669C26.9486 13.4294 26.7806 13.2247 26.565 13.0806C26.3494 12.9365 26.0959 12.8595 25.8365 12.8594H25.836C25.4883 12.8596 25.1549 12.9976 24.9091 13.2433C24.6632 13.4889 24.5249 13.822 24.5246 14.1695ZM15.5874 28.8899C14.5219 28.8414 13.9428 28.664 13.558 28.5142C13.0478 28.3156 12.6837 28.0792 12.301 27.6972C11.9182 27.3152 11.6813 26.9518 11.4836 26.4419C11.3335 26.0574 11.1561 25.4785 11.1076 24.4137C11.0547 23.2624 11.0441 22.9166 11.0441 20C11.0441 17.0835 11.0555 16.7386 11.1076 15.5864C11.1562 14.5216 11.3349 13.9438 11.4836 13.5582C11.6822 13.0483 11.9188 12.6845 12.301 12.302C12.6832 11.9195 13.0469 11.6827 13.558 11.485C13.9427 11.3351 14.5219 11.1578 15.5874 11.1093C16.7393 11.0564 17.0853 11.0458 20.0024 11.0458C22.9194 11.0458 23.2658 11.0573 24.4186 11.1093C25.4841 11.1578 26.0622 11.3365 26.448 11.485C26.9582 11.6827 27.3223 11.92 27.705 12.302C28.0878 12.684 28.3238 13.0483 28.5225 13.5582C28.6725 13.9427 28.85 14.5216 28.8984 15.5864C28.9514 16.7386 28.9619 17.0835 28.9619 20C28.9619 22.9166 28.9514 23.2615 28.8984 24.4137C28.8499 25.4785 28.6715 26.0572 28.5225 26.4419C28.3238 26.9518 28.0873 27.3156 27.705 27.6972C27.3228 28.0789 26.9582 28.3156 26.448 28.5142C26.0634 28.6641 25.4841 28.8415 24.4186 28.8899C23.2667 28.9428 22.9207 28.9534 20.0024 28.9534C17.084 28.9534 16.739 28.9428 15.5874 28.8899ZM15.4969 9.14451C14.3335 9.19746 13.5386 9.38181 12.8443 9.6518C12.1254 9.9306 11.5167 10.3046 10.9085 10.9115C10.3003 11.5184 9.92696 12.1277 9.64799 12.8462C9.37785 13.5405 9.19338 14.3345 9.1404 15.4972C9.08655 16.6617 9.07422 17.034 9.07422 20C9.07422 22.9659 9.08655 23.3382 9.1404 24.5027C9.19338 25.6655 9.37785 26.4594 9.64799 27.1537C9.92696 27.8718 10.3004 28.4817 10.9085 29.0884C11.5166 29.695 12.1254 30.0685 12.8443 30.3481C13.5399 30.6181 14.3335 30.8024 15.4969 30.8554C16.6627 30.9083 17.0346 30.9215 20.0024 30.9215C22.9701 30.9215 23.3426 30.9092 24.5078 30.8554C25.6713 30.8024 26.4657 30.6181 27.1604 30.3481C27.8789 30.0685 28.488 29.6953 29.0962 29.0884C29.7044 28.4815 30.077 27.8718 30.3567 27.1537C30.6269 26.4594 30.8122 25.6654 30.8643 24.5027C30.9173 23.3373 30.9296 22.9659 30.9296 20C30.9296 17.034 30.9173 16.6617 30.8643 15.4972C30.8113 14.3344 30.6269 13.5401 30.3567 12.8462C30.077 12.1281 29.7035 11.5194 29.0962 10.9115C28.489 10.3037 27.8789 9.9306 27.1612 9.6518C26.4657 9.38181 25.6712 9.19658 24.5087 9.14451C23.3435 9.09156 22.971 9.07837 20.0032 9.07837C17.0355 9.07837 16.6627 9.09069 15.4969 9.14451Z" fill="white"/>
<path d="M16.3602 20C16.3602 17.9894 17.9906 16.3591 20.0024 16.3591C22.0141 16.3591 23.6454 17.9894 23.6454 20C23.6454 22.0105 22.0141 23.6408 20.0024 23.6408C17.9906 23.6408 16.3602 22.0105 16.3602 20ZM14.3909 20C14.3909 23.0973 16.9031 25.6081 20.0024 25.6081C23.1016 25.6081 25.6138 23.0973 25.6138 20C25.6138 16.9026 23.1016 14.3919 20.0024 14.3919C16.9031 14.3919 14.3909 16.9026 14.3909 20ZM24.5246 14.1695C24.5245 14.4287 24.6013 14.6821 24.7453 14.8977C24.8893 15.1133 25.0941 15.2813 25.3336 15.3806C25.5732 15.4799 25.8369 15.506 26.0913 15.4555C26.3457 15.4051 26.5794 15.2803 26.7629 15.0971C26.9464 14.9139 27.0713 14.6804 27.122 14.4262C27.1727 14.172 27.1469 13.9085 27.0477 13.669C26.9486 13.4294 26.7806 13.2247 26.565 13.0806C26.3494 12.9365 26.0959 12.8595 25.8365 12.8594H25.836C25.4883 12.8596 25.1549 12.9976 24.9091 13.2433C24.6632 13.4889 24.5249 13.822 24.5246 14.1695ZM15.5874 28.8899C14.5219 28.8414 13.9428 28.664 13.558 28.5142C13.0478 28.3156 12.6837 28.0792 12.301 27.6972C11.9182 27.3152 11.6813 26.9518 11.4836 26.4419C11.3335 26.0574 11.1561 25.4785 11.1076 24.4137C11.0547 23.2624 11.0441 22.9166 11.0441 20C11.0441 17.0835 11.0555 16.7386 11.1076 15.5864C11.1562 14.5216 11.3349 13.9438 11.4836 13.5582C11.6822 13.0483 11.9188 12.6845 12.301 12.302C12.6832 11.9195 13.0469 11.6827 13.558 11.485C13.9427 11.3351 14.5219 11.1578 15.5874 11.1093C16.7393 11.0564 17.0853 11.0458 20.0024 11.0458C22.9194 11.0458 23.2658 11.0573 24.4186 11.1093C25.4841 11.1578 26.0622 11.3365 26.448 11.485C26.9582 11.6827 27.3223 11.92 27.705 12.302C28.0878 12.684 28.3238 13.0483 28.5225 13.5582C28.6725 13.9427 28.85 14.5216 28.8984 15.5864C28.9514 16.7386 28.9619 17.0835 28.9619 20C28.9619 22.9166 28.9514 23.2615 28.8984 24.4137C28.8499 25.4785 28.6715 26.0572 28.5225 26.4419C28.3238 26.9518 28.0873 27.3156 27.705 27.6972C27.3228 28.0789 26.9582 28.3156 26.448 28.5142C26.0634 28.6641 25.4841 28.8415 24.4186 28.8899C23.2667 28.9428 22.9207 28.9534 20.0024 28.9534C17.084 28.9534 16.739 28.9428 15.5874 28.8899ZM15.4969 9.14451C14.3335 9.19746 13.5386 9.38181 12.8443 9.6518C12.1254 9.9306 11.5167 10.3046 10.9085 10.9115C10.3003 11.5184 9.92696 12.1277 9.64799 12.8462C9.37785 13.5405 9.19338 14.3345 9.1404 15.4972C9.08655 16.6617 9.07422 17.034 9.07422 20C9.07422 22.9659 9.08655 23.3382 9.1404 24.5027C9.19338 25.6655 9.37785 26.4594 9.64799 27.1537C9.92696 27.8718 10.3004 28.4817 10.9085 29.0884C11.5166 29.695 12.1254 30.0685 12.8443 30.3481C13.5399 30.6181 14.3335 30.8024 15.4969 30.8554C16.6627 30.9083 17.0346 30.9215 20.0024 30.9215C22.9701 30.9215 23.3426 30.9092 24.5078 30.8554C25.6713 30.8024 26.4657 30.6181 27.1604 30.3481C27.8789 30.0685 28.488 29.6953 29.0962 29.0884C29.7044 28.4815 30.077 27.8718 30.3567 27.1537C30.6269 26.4594 30.8122 25.6654 30.8643 24.5027C30.9173 23.3373 30.9296 22.9659 30.9296 20C30.9296 17.034 30.9173 16.6617 30.8643 15.4972C30.8113 14.3344 30.6269 13.5401 30.3567 12.8462C30.077 12.1281 29.7035 11.5194 29.0962 10.9115C28.489 10.3037 27.8789 9.9306 27.1612 9.6518C26.4657 9.38181 25.6712 9.19658 24.5087 9.14451C23.3435 9.09156 22.971 9.07837 20.0032 9.07837C17.0355 9.07837 16.6627 9.09069 15.4969 9.14451Z" fill="white"/>
</svg>
