<svg width="40" height="40" viewBox="0 0 40 40" fill="none" xmlns="http://www.w3.org/2000/svg">
<path d="M20.1039 32.3409C26.1394 32.3409 31.0321 27.4482 31.0321 21.4128C31.0321 15.3773 26.1394 10.4846 20.1039 10.4846C14.0685 10.4846 9.17578 15.3773 9.17578 21.4128C9.17578 27.4482 14.0685 32.3409 20.1039 32.3409Z" fill="white"/>
<path d="M13.8598 21.1734C13.8598 21.1734 19.273 18.8704 21.1504 18.0594C21.8701 17.7351 24.3107 16.6971 24.3107 16.6971C24.3107 16.6971 25.4372 16.243 25.3433 17.3458C25.312 17.8 25.0617 19.3893 24.8114 21.1085C24.4359 23.5412 24.0291 26.201 24.0291 26.201C24.0291 26.201 23.9665 26.9471 23.4346 27.0768C22.9027 27.2066 22.0265 26.6227 21.8701 26.493C21.7449 26.3957 19.5233 24.936 18.7098 24.2224C18.4907 24.0278 18.2404 23.6386 18.741 23.1844C19.8675 22.114 21.213 20.7841 22.0265 19.9408C22.402 19.5515 22.7775 18.6433 21.213 19.7461C18.9914 21.3355 16.8011 22.8276 16.8011 22.8276C16.8011 22.8276 16.3004 23.152 15.3617 22.86C14.423 22.5682 13.3278 22.1789 13.3278 22.1789C13.3278 22.1789 12.5769 21.6924 13.8598 21.1734Z" fill="#153D8A"/>
</svg>
