<svg width="22" height="18" viewBox="0 0 22 18" fill="none" xmlns="http://www.w3.org/2000/svg">
<path d="M21.1198 2.60632C20.4593 2.89055 19.7649 3.08848 19.0539 3.19521C19.3863 3.13822 19.8755 2.53983 20.0702 2.29762C20.366 1.93228 20.5914 1.51521 20.7351 1.0676C20.7351 1.03436 20.7683 0.986866 20.7351 0.963121C20.7183 0.953976 20.6995 0.949184 20.6805 0.949184C20.6614 0.949184 20.6426 0.953976 20.6258 0.963121C19.8537 1.38124 19.032 1.70037 18.18 1.91294C18.1504 1.92202 18.1187 1.92283 18.0886 1.9153C18.0585 1.90777 18.031 1.89218 18.0091 1.8702C17.9428 1.79124 17.8714 1.71668 17.7954 1.64699C17.4479 1.33566 17.0537 1.08086 16.6271 0.891884C16.0513 0.655652 15.4293 0.553345 14.8082 0.59269C14.2055 0.630753 13.617 0.792408 13.0795 1.0676C12.5501 1.35774 12.0849 1.75189 11.7117 2.22639C11.3192 2.71476 11.0358 3.28153 10.8807 3.88858C10.7527 4.466 10.7382 5.06279 10.8379 5.64575C10.8379 5.74548 10.8379 5.75973 10.7524 5.74548C7.36631 5.24683 4.58807 4.0453 2.31799 1.46653C2.21826 1.35255 2.16602 1.35255 2.08529 1.46653C1.09747 2.96725 1.57713 5.34181 2.8119 6.51484C2.97812 6.67156 3.14909 6.82353 3.32956 6.96601C2.76342 6.92582 2.21111 6.7724 1.70536 6.51484C1.61037 6.4531 1.55813 6.48635 1.55339 6.60032C1.53992 6.75834 1.53992 6.91722 1.55339 7.07524C1.65248 7.83253 1.95092 8.54992 2.4182 9.15404C2.88548 9.75816 3.50482 10.2273 4.21289 10.5136C4.3855 10.5875 4.56536 10.6432 4.74954 10.6798C4.22544 10.783 3.68791 10.799 3.15859 10.7273C3.04461 10.7036 3.00187 10.7653 3.04461 10.8745C3.74273 12.7742 5.2577 13.3536 6.36899 13.6765C6.52096 13.7003 6.67293 13.7003 6.8439 13.7383C6.8439 13.7383 6.8439 13.7383 6.81541 13.7667C6.48772 14.3651 5.16271 14.7688 4.55483 14.9778C3.44528 15.3763 2.26229 15.5286 1.08797 15.4242C0.902756 15.3957 0.860014 15.4004 0.812523 15.4242C0.765032 15.4479 0.812523 15.5002 0.864763 15.5477C1.10222 15.7044 1.33967 15.8421 1.58663 15.9751C2.32181 16.3761 3.09905 16.6946 3.9042 16.9249C8.07392 18.0742 12.7661 17.2289 15.8957 14.1182C18.3558 11.6771 19.2201 8.31001 19.2201 4.93813C19.2201 4.80991 19.3768 4.73392 19.4671 4.66743C20.0894 4.1825 20.6381 3.6098 21.096 2.96725C21.1753 2.87147 21.216 2.74952 21.21 2.62531C21.21 2.55408 21.21 2.56832 21.1198 2.60632Z" fill="white"/>
</svg>
